<svg width="37" height="28" viewBox="0 0 37 28" fill="none" xmlns="http://www.w3.org/2000/svg">
<path d="M24.5646 27.4166H26.648V25.0833H24.5646V27.4166ZM29.7729 14.5833C31.5021 14.5833 32.8875 13.02 32.8875 11.0833L32.898 4.08331C32.898 2.14665 31.5021 0.583313 29.7729 0.583313C28.0438 0.583313 26.648 2.14665 26.648 4.08331V11.0833C26.648 13.02 28.0438 14.5833 29.7729 14.5833ZM28.7313 27.4166H30.8146V25.0833H28.7313V27.4166ZM32.898 27.4166H34.9813V25.0833H32.898V27.4166ZM36.1063 11.0833C35.6688 11.0833 35.3042 11.4333 35.2417 11.9116C34.8563 14.9566 32.4084 17.0333 29.7729 17.0333C27.1375 17.0333 24.6896 14.9683 24.3042 11.9116C24.2417 11.4333 23.8667 11.0833 23.4396 11.0833C22.898 11.0833 22.4813 11.62 22.5542 12.215C23.0334 15.6683 25.6375 18.3983 28.7313 18.9233V21.5833C28.7313 22.225 29.2 22.75 29.7729 22.75C30.3459 22.75 30.8146 22.225 30.8146 21.5833V18.9233C33.898 18.41 36.5125 15.6683 36.9917 12.215C37.0646 11.62 36.648 11.0833 36.1063 11.0833Z" fill="#0C0C0C"/>
</svg>
