<svg width="28" height="28" viewBox="0 0 28 28" fill="none" xmlns="http://www.w3.org/2000/svg">
<g clip-path="url(#clip0_6_56)">
<path d="M12.9321 0.445656L13.5628 0.436096C15.6805 0.43965 17.851 0.94753 19.7446 1.90011C23.3917 3.73487 25.8729 7.0127 26.7476 11.0201C27.1557 12.8902 27.1824 15.2135 26.6352 17.0767L26.3288 18.1588C25.5058 20.6407 24.0686 22.7436 22.0603 24.3963C20.4017 25.7613 17.8934 27.0448 15.7182 27.3369L14.1547 27.5327C12.9503 27.6192 11.5988 27.4437 10.4441 27.1175C9.70337 26.9363 8.96362 26.676 8.26865 26.362L7.48093 25.9877C7.39277 25.9484 7.3908 25.9786 7.30319 26.0172L6.11587 26.5076C4.7197 27.0291 3.27322 27.3754 1.79021 27.5176C1.48259 27.547 1.12645 27.5901 0.820587 27.5429C0.165299 27.4419 -0.15477 26.7628 0.12844 26.1614C0.310998 25.7736 0.630843 25.4365 0.879655 25.0894C1.50334 24.2192 2.04423 23.3016 2.34919 22.27C2.67779 21.1584 2.48087 21.3134 1.93192 20.4537C-2.00544 14.2875 0.329214 5.85021 6.63513 2.23404C8.06269 1.41539 9.73323 0.858105 11.3526 0.599455L12.9321 0.445656ZM13.1975 1.3072C7.39272 1.46881 2.42806 5.35419 1.17814 11.0474C1.0722 11.53 0.993142 12.0166 0.93653 12.5074L0.875488 13.2486C0.777225 15.5529 1.47362 18.4561 2.89945 20.3387C3.50225 21.1347 3.52803 21.3108 3.222 22.3609C2.98962 23.1583 2.69544 23.8808 2.27131 24.5981L1.86612 25.2116C1.70663 25.4366 0.924925 26.4273 0.931181 26.6265C1.0872 26.7768 2.08765 26.6106 2.29929 26.5821C3.52248 26.4174 4.73214 26.0936 5.88783 25.6603L6.56497 25.3829C6.83326 25.2619 7.11086 25.1111 7.3989 25.0472L7.41404 25.0434C7.60392 24.9983 7.88906 25.2055 8.04793 25.2889L8.5102 25.5153C9.06736 25.7784 9.64983 25.9921 10.2395 26.1698L11.9858 26.5511L12.8198 26.6334C15.9069 26.8686 19.2046 25.6951 21.563 23.6943C24.5761 21.1379 26.404 17.1085 26.17 13.1421C26.1009 11.9697 25.7649 10.3195 25.3243 9.19473C23.9293 5.63365 20.9181 2.93906 17.2632 1.84628C16.8284 1.71629 16.3777 1.59682 15.9301 1.52018L14.3733 1.33046C14.2915 1.3246 14.211 1.31001 14.1289 1.30648L13.1975 1.3072Z" fill="#0C0C0C"/>
<path d="M24.2769 11.6202C24.8242 11.5631 24.8403 12.3633 24.8725 12.739L24.9117 13.4904C24.9132 13.7927 24.9246 14.1014 24.9064 14.403C24.6233 19.1237 21.686 23.0748 17.3103 24.7116C14.6454 25.7085 11.909 25.6285 9.32164 24.445C8.45202 24.0492 8.89946 23.4659 9.35757 23.5553C9.47 23.5772 9.56969 23.6406 9.67171 23.6894L9.99505 23.8291C12.1678 24.7102 14.2468 24.7692 16.4662 24.0937C20.1044 22.9863 22.795 20.0739 23.7385 16.4072C23.9006 15.7774 24.0298 15.1155 24.0633 14.465L24.0676 13.88C24.0679 13.5109 24.0641 13.1503 24.0239 12.7832L23.9657 12.3455C23.9285 12.1139 23.8541 11.8085 24.1109 11.6727L24.1274 11.6643C24.1779 11.6381 24.2207 11.6286 24.2769 11.6202Z" fill="#0C0C0C"/>
<path d="M13.1418 2.5105C15.008 2.43102 16.9371 2.8162 18.6033 3.66958C18.771 3.75544 19.0219 3.86692 19.1248 4.03238C19.3117 4.33289 19.0007 4.72366 18.6631 4.63485C18.5156 4.59604 18.3737 4.49538 18.2405 4.42259L17.8279 4.22081C15.1536 3.04773 12.0499 3.0456 9.35678 4.16764C6.25935 5.45806 4.13919 7.99553 3.26243 11.2514L3.10069 12.076C3.06901 12.3214 3.01817 12.5639 2.996 12.8109C2.90859 13.7849 2.9518 14.955 3.18526 15.918C4.37991 14.2616 6.14386 13.0961 7.83261 12.0055L9.62406 10.8957L14.7006 8.11543L16.9871 7.0158C18.1811 6.47769 20.5859 5.40805 21.8239 6.30846C22.6077 6.87857 22.5363 7.75948 22.32 8.58593L19.3617 18.3562C19.0915 19.2595 18.7063 21.1185 17.7422 21.4948C17.0124 21.7796 16.4293 21.4756 15.8078 21.0914L13.1748 19.4538C12.8564 19.9677 12.6901 20.6352 12.6011 21.2323L12.497 21.9368C12.4196 22.3278 12.1249 22.7865 11.6624 22.6702L11.5836 22.6496C11.0688 22.4912 10.8266 21.8627 10.6037 21.4284L9.46836 19.1147C9.40036 18.9896 9.21682 18.5892 9.10984 18.5122C9.0942 18.5009 8.3725 18.5819 8.30134 18.5894L5.10496 18.9003C4.61234 18.9204 4.10079 18.9382 3.62329 18.8017C3.07773 18.6457 2.58531 18.1355 2.55839 17.5538C2.53815 17.1166 2.56091 17.0398 2.46048 16.6053L2.3117 15.9207C2.17622 15.238 2.12709 14.534 2.12639 13.8391C2.12178 9.22237 4.76258 5.24351 8.95091 3.44585C9.40956 3.24899 9.86814 3.07007 10.3486 2.93318L11.3392 2.70119L13.1418 2.5105ZM20.3329 6.81631C19.4115 6.93585 18.3279 7.31622 17.4744 7.72101L15.8597 8.47847L10.4883 11.3491L7.67395 13.0979L6.81262 13.702C6.53546 13.8948 6.24799 14.0829 5.9833 14.2926L4.91423 15.2194C4.37303 15.7332 3.82943 16.3084 3.56573 17.0201C3.49251 17.2177 3.39181 17.5115 3.47896 17.7155L3.48439 17.7295C3.70829 18.2953 5.61501 18.0047 6.10439 17.9636L8.07849 17.7685L10.4609 17.46C10.5945 17.4473 10.7339 17.439 10.8637 17.4033L18.9893 9.34312L11.5007 13.4978C11.3414 13.6058 11.147 13.7545 10.943 13.7198C10.7005 13.6786 10.5968 13.3708 10.6547 13.1583C10.7178 12.9266 11.0837 12.7791 11.2693 12.6662L15.9145 10.0145C17.0731 9.40055 18.2331 8.80221 19.4557 8.32535C19.6874 8.23501 19.9149 8.14266 20.1557 8.07887C20.8121 7.90498 21.1437 8.44096 20.6162 8.96269C20.4898 9.08779 20.3515 9.19879 20.2182 9.31615L17.0738 12.2598L14.6357 14.6964L11.7821 17.6707C12.1863 17.8675 12.5614 18.1138 12.9473 18.3432L16.1781 20.3253C17.4552 21.1218 17.6989 20.8357 18.1508 19.4507L21.1004 9.75131C21.2536 9.22036 21.4496 8.69417 21.5728 8.15527C21.6778 7.69537 21.7343 7.19266 21.252 6.9395L21.2284 6.927C20.9577 6.78749 20.6291 6.78982 20.3329 6.81631ZM10.9256 18.2595L10.0261 18.3635L11.6473 21.6467L11.6995 21.6959C11.806 20.7745 11.9995 19.846 12.4748 19.0386C12.1898 18.8248 11.2954 18.2088 10.9256 18.2595Z" fill="#0C0C0C"/>
</g>
<defs>
<clipPath id="clip0_6_56">
<rect width="27.0503" height="27.1278" fill="white" transform="translate(0 0.436096)"/>
</clipPath>
</defs>
</svg>
